<svg width="2855" height="3358" viewBox="0 0 2855 3358" fill="none" xmlns="http://www.w3.org/2000/svg">
<path d="M377.649 84.785C346.209 160.17 336.832 201.932 333.27 275.616C354.619 285.696 363.955 285.075 377.649 275.616C416.36 233.083 420.888 227.76 437.561 209.047C428.263 196.4 426.441 177.076 422.028 146.916L377.649 84.785Z" fill="#2A2722"/>
<path d="M730.463 98.0988C761.903 173.484 771.28 215.246 774.843 288.929C753.493 299.01 744.157 298.389 730.463 288.929C691.752 246.396 687.224 241.074 670.551 222.361C679.849 209.714 681.672 190.39 686.084 160.23L730.463 98.0988Z" fill="#2A2722"/>
<path d="M686.084 335.528C655.229 318.876 647.148 306.492 646.143 280.054C622.603 298.99 611.064 310.747 596.613 335.528L590.669 342.184C667.142 348.551 681.46 345.602 686.084 335.528Z" fill="#A4A971"/>
<path d="M393.181 280.054C387.258 313.397 375.764 324.789 344.364 335.528C355.155 348.031 356.935 356.351 433.123 348.841C431.649 344.064 430.21 339.655 428.743 335.528C420.874 313.387 412.21 299.349 393.181 280.054Z" fill="#A4A971"/>
<path fill-rule="evenodd" clip-rule="evenodd" d="M1067.75 38.1869C1043.34 40.4059 1034.46 151.354 1067.75 151.354C1101.98 154.445 1179.57 151.885 1209.76 149.135C1239.94 146.384 1244.67 40.4403 1209.76 35.968C1174.84 31.4957 1092.15 35.968 1067.75 38.1869ZM1123.22 47.0628C1100.4 89.4916 1123.22 135.821 1123.22 135.821C1123.22 135.821 1142.41 98.3324 1123.22 47.0628Z" fill="#A4A971"/>
<path fill-rule="evenodd" clip-rule="evenodd" d="M1442.75 38.1869C1418.34 40.4059 1409.47 151.354 1442.75 151.354C1476.98 154.445 1545.7 154.104 1575.89 151.354C1606.07 148.603 1610.8 42.6592 1575.89 38.1869C1540.97 33.7146 1467.16 35.968 1442.75 38.1869ZM1489.35 47.0628C1466.52 89.4916 1489.35 135.821 1489.35 135.821C1489.35 135.821 1508.54 98.3324 1489.35 47.0628Z" fill="#A4A971"/>
<path d="M1123.22 47.0628C1100.4 89.4916 1123.22 135.821 1123.22 135.821C1123.22 135.821 1142.41 98.3324 1123.22 47.0628Z" fill="#D22B2B"/>
<path d="M1489.35 47.0628C1466.52 89.4916 1489.35 135.821 1489.35 135.821C1489.35 135.821 1508.54 98.3324 1489.35 47.0628Z" fill="#D22B2B"/>
<path d="M344.364 335.528H273.358V375.469H291.109C291.35 375.399 291.58 375.399 291.8 375.469H1165.38L1218.63 382.126V348.841C1183.85 353.263 1165.67 355.004 1149.85 348.841C1098.66 355.96 1089.65 354.751 1087.72 348.841C1039.53 353.919 1004.48 362.977 981.206 348.841C916.011 357.455 889.836 358.749 879.134 348.841C828.717 353.86 811.373 351.179 803.689 335.528H686.084C681.46 345.602 667.142 348.551 590.669 342.184L596.613 335.528H428.743C430.21 339.655 431.649 344.064 433.123 348.841C356.935 356.351 355.155 348.031 344.364 335.528Z" fill="#2A2722"/>
<path fill-rule="evenodd" clip-rule="evenodd" d="M382.087 2.68359H337.707C319.308 69.8848 309.128 103.123 291.109 160.23C268.951 228.857 273.014 267.15 273.358 335.528H344.364C375.764 324.789 387.258 313.397 393.181 280.054C412.21 299.349 420.874 313.387 428.743 335.528H596.613C611.064 310.747 622.603 298.99 646.143 280.054C647.148 306.492 655.229 318.876 686.084 335.528H803.689C811.373 351.179 828.717 353.86 879.134 348.841L941.265 257.864L981.206 348.841L1047.77 280.054L1087.72 348.841L1116.56 311.119L1149.85 348.841L1183.13 288.929L1218.63 348.841V382.126L1165.38 375.469H291.8C299.428 377.887 295.135 463.518 291.109 579.613C308.731 590.406 317.988 598.579 333.27 617.335H899.104H1345.12C1451.59 686.66 1498.24 715.092 1509.32 708.313C1543.17 710.671 1561.28 710.725 1593.64 708.313L1611.39 699.437C1660.6 647.957 1677.97 626.503 1702.37 592.927L1684.62 677.247C1681.6 679.606 1678.64 681.949 1675.74 684.281L1624.7 994.559C1735.02 916.411 1796.41 879.222 1904.29 816.121L1906.51 814.823C1868.06 651.86 1846.82 508.116 1808.88 260.083L1655.77 240.112C1655.77 240.112 1646.89 204.609 1640.24 166.887C1633.58 129.164 1635.8 60.3765 1622.49 35.968C1609.17 11.5595 1584.76 2.68359 1584.76 2.68359H1407.25L1382.84 69.2524H1289.64L1265.23 2.68359H1027.8C1006.87 8.70537 1000.68 20.6375 990.082 42.6249C977.506 120.404 969.568 160.546 952.359 222.361H819.222C808.152 138.149 791.215 90.097 754.872 2.68359H706.055L646.143 64.8145H437.561L382.087 2.68359ZM774.843 288.929C771.28 215.246 761.903 173.484 730.463 98.0988L686.084 160.23C681.672 190.39 679.849 209.714 670.551 222.361C687.224 241.074 691.752 246.396 730.463 288.929C744.157 298.389 753.493 299.01 774.843 288.929ZM333.27 275.616C336.832 201.932 346.209 160.17 377.649 84.785L422.028 146.916C426.441 177.076 428.263 196.4 437.561 209.047C420.888 227.76 416.36 233.083 377.649 275.616C363.955 285.075 354.619 285.696 333.27 275.616ZM1067.75 151.354C1034.46 151.354 1043.34 40.4059 1067.75 38.1869C1092.15 35.968 1174.84 31.4957 1209.76 35.968C1244.67 40.4403 1239.94 146.384 1209.76 149.135C1179.57 151.885 1101.98 154.445 1067.75 151.354ZM1442.75 151.354C1409.47 151.354 1418.34 40.4059 1442.75 38.1869C1467.16 35.968 1540.97 33.7146 1575.89 38.1869C1610.8 42.6592 1606.07 148.603 1575.89 151.354C1545.7 154.104 1476.98 154.445 1442.75 151.354Z" fill="#426640"/>
<path d="M941.265 257.864L879.134 348.841C889.836 358.749 916.011 357.455 981.206 348.841L941.265 257.864Z" fill="#A4A971"/>
<path d="M1047.77 280.054L981.206 348.841C1004.48 362.977 1039.53 353.919 1087.72 348.841L1047.77 280.054Z" fill="#A4A971"/>
<path d="M1116.56 311.119L1087.72 348.841C1089.65 354.751 1098.66 355.96 1149.85 348.841L1116.56 311.119Z" fill="#A4A971"/>
<path d="M1183.13 288.929L1149.85 348.841C1165.67 355.004 1183.85 353.263 1218.63 348.841L1183.13 288.929Z" fill="#A4A971"/>
<path d="M1893.2 319.995C1866.45 295.535 1847.16 282.568 1808.88 260.083C1846.82 508.116 1868.06 651.86 1906.51 814.823L1961.99 833.314L2032.99 856.983C2033.28 824.856 2036.46 805.825 2052.96 768.225C2020.06 744.376 1996.02 729.891 1942.02 701.656C1970.97 666.888 1986.4 646.664 2006.37 604.022C1975.65 574.812 1955.53 556.742 1899.86 513.044L1942.02 466.446C1918.3 443.692 1901.84 430.103 1866.57 404.315C1877.98 371.815 1882.83 353.348 1893.2 319.995Z" fill="#2D2727"/>
<path d="M899.104 617.335L990.082 799.29C1013.68 814.594 1037.57 821.116 1069.96 825.918C1054.43 874.735 1141.09 999.039 1125.44 987.902C1197.38 1043.71 1233.36 1065.56 1291.86 1092.19C1344.35 1082.95 1386.1 1082.37 1478.25 1087.75L1579.37 1023.41C1553.77 971.986 1541.22 925.216 1522.63 848.107C1582.3 774.376 1617.04 731.527 1675.74 684.281C1678.64 681.949 1681.6 679.606 1684.62 677.247L1702.37 592.927C1677.97 626.503 1660.6 647.957 1611.39 699.437L1593.64 708.313C1561.28 710.725 1543.17 710.671 1509.32 708.313C1498.24 715.092 1451.59 686.66 1345.12 617.335H899.104Z" fill="#2D2727"/>
<path d="M1522.63 848.107C1541.22 925.216 1553.77 971.986 1579.37 1023.41L1624.7 994.559L1675.74 684.281C1617.04 731.527 1582.3 774.376 1522.63 848.107Z" fill="#714133"/>
<path d="M1125.44 987.902C1141.09 999.039 1054.43 874.735 1069.96 825.918C1037.57 821.116 1013.68 814.594 990.082 799.29C957.48 806.809 941.474 812.062 914.637 821.48C1162.01 1019.78 1109.79 976.765 1125.44 987.902Z" fill="#714133"/>
<path d="M1125.44 987.902C1109.79 976.765 1162.01 1019.78 914.637 821.48H903.542C903.423 826.133 903.671 831.292 904.252 837.012C908.378 877.661 929.291 946.634 954.578 1063.35C1001.83 1098.4 1044.65 1156.07 1127.66 1276.37C1144.89 1258.35 1153.29 1245.62 1187.57 1180.95H1203.1V1169.86C1262.57 1130.93 1273.49 1115.4 1291.86 1092.19C1233.36 1065.56 1197.38 1043.71 1125.44 987.902Z" fill="#A8B877"/>
<path d="M1579.37 1023.41L1478.25 1087.75C1503.29 1121.04 1537.61 1142.57 1564.79 1170.73C1568.65 1174.72 1572.36 1178.85 1575.89 1183.17C1610.21 1229.69 1621.41 1246.66 1640.31 1275.34L1640.32 1275.34L1642.46 1278.59C1659.16 1276.5 1668.65 1273.56 1684.62 1265.27C1717.22 1221.69 1733.6 1198.39 1757.84 1158.76C1820.48 1079.02 1849.11 1047.53 1890.98 1010.09L1961.99 856.983V833.314L1906.51 814.823L1904.29 816.121C1796.41 879.222 1735.02 916.411 1624.7 994.559L1579.37 1023.41Z" fill="#A9B779"/>
<path d="M1203.1 1169.86V1180.95L1351.77 1374L1302.95 1478.29L1387.28 1624.74H1418.34L1491.57 1478.29L1433.87 1356.25L1542.6 1170.73H1564.79C1537.61 1142.57 1503.29 1121.04 1478.25 1087.75C1386.1 1082.37 1344.35 1082.95 1291.86 1092.19C1273.49 1115.4 1262.57 1130.93 1203.1 1169.86Z" fill="black"/>
<path d="M1127.66 1276.37C1044.65 1156.07 1001.83 1098.4 954.578 1063.35C1164.8 1489.29 1276.44 1622.07 1402.81 1791.17C1448.75 1728.36 1472.24 1696.84 1558.14 1569.27C1621.19 1471.57 1661.43 1404.78 1732.79 1286.3L1733.43 1285.24C1794.77 1187.56 1829.34 1124.48 1890.98 1010.09C1849.11 1047.53 1820.48 1079.02 1757.84 1158.76C1733.6 1198.39 1717.22 1221.69 1684.62 1265.27C1668.65 1273.56 1659.16 1276.5 1642.46 1278.59L1640.32 1275.34L1640.31 1275.34C1621.41 1246.66 1610.21 1229.69 1575.89 1183.17C1572.36 1178.85 1568.65 1174.72 1564.79 1170.73H1542.6L1433.87 1356.25L1491.57 1478.29L1418.34 1624.74H1387.28L1302.95 1478.29L1351.77 1374L1203.1 1180.95H1187.57C1153.29 1245.62 1144.89 1258.35 1127.66 1276.37Z" fill="#74543F"/>
<path d="M1402.81 1999.75C1311.42 1999.76 1314.05 2135.1 1402.81 2135.1C1491.57 2135.1 1494.2 1999.74 1402.81 1999.75Z" fill="black"/>
<path d="M1402.81 2279.34C1316.27 2279.34 1311.83 2410.25 1402.81 2410.25C1493.79 2410.25 1489.35 2279.34 1402.81 2279.34Z" fill="black"/>
<path fill-rule="evenodd" clip-rule="evenodd" d="M1402.81 1791.17C1276.44 1622.07 1164.8 1489.29 954.578 1063.35C929.291 946.634 908.378 877.661 904.252 837.012C759.331 909.543 681.114 951.241 548.509 1027.84L528.538 1502.7C552.918 1583.19 569.751 1616.65 570.698 1640.28C571.645 1663.9 615.298 1746.45 621.734 1815.57C646.002 2024.17 649.611 2101.9 657.238 2245.07L661.676 2246.05L797.032 2321.5L661.676 2383.63V2416.91L1229.73 2654.34L1402.81 2490.14L1589.2 2654.34L2157.25 2434.66V2413.44L2150.6 2410.25V2392.5L2017.46 2341.47L2157.9 2259.37L2158.4 2253.31C2171.55 2095.51 2179.11 2004.81 2201.63 1782.29C2230.21 1668.9 2243.43 1604.48 2259.33 1487.17C2269.9 1365.6 2277.38 1299.2 2294.83 1185.39C2301.9 1114.43 2304.9 1062.77 2314.8 1027.84V1010.09C2219.81 947.807 2162.25 913.596 2032.99 856.983L1961.99 833.314V856.983L1890.98 1010.09C1829.34 1124.48 1794.77 1187.56 1733.43 1285.24L1732.79 1286.3C1661.43 1404.78 1621.19 1471.57 1558.14 1569.27C1472.24 1696.84 1448.75 1728.36 1402.81 1791.17ZM1402.81 1999.75C1311.42 1999.76 1314.05 2135.1 1402.81 2135.1C1491.57 2135.1 1494.2 1999.74 1402.81 1999.75ZM1402.81 2279.34C1316.27 2279.34 1311.83 2410.25 1402.81 2410.25C1493.79 2410.25 1489.35 2279.34 1402.81 2279.34Z" fill="black" fill-opacity="0.85"/>
<path d="M528.538 1502.7L548.509 1027.84C460.32 1072.88 413.487 1104.93 333.27 1169.86L64.7754 1469.42C72.7099 1522.74 62.9867 1533.49 38.1479 1542.64C45.0298 1568.07 48.2069 1589.58 51.4616 1646.93L262.263 1655.2L277.796 1655.81L513.005 1542.64L528.538 1502.7Z" fill="#AEBA78"/>
<path d="M262.263 1655.2L51.4616 1646.93C52.4868 1682.94 53.2342 1702.71 64.7754 1717.94C43.5255 1741.6 33.0456 1778.95 13.7393 1835.54C14.852 1916.03 11.4394 1953.47 2.64453 2015.28C11.5862 2052.5 18.6289 2069.52 27.0531 2092.94L64.7754 2059.66L144.658 2053L211.227 2001.97L359.897 1993.09C306.003 1904.14 272.585 1858.99 204.57 1791.17C219.697 1734.04 226 1700.83 262.263 1655.2Z" fill="#456746"/>
<path fill-rule="evenodd" clip-rule="evenodd" d="M64.7754 2059.66L27.0531 2092.94L28.5524 2099.22C48.8099 2183.99 60.6382 2233.49 82.5271 2288.21C79.3617 2326.88 106.936 2392.5 126.906 2487.92C178.7 2534.42 209.966 2563.37 237.854 2578.9H590.669C603.095 2518.53 610.017 2484.7 615.077 2425.79C630.063 2425.99 640.247 2424.07 661.676 2416.91V2383.63L797.032 2321.5L661.676 2246.05L657.238 2245.07L630.61 2239.15L579.574 2345.91L475.283 2317.06L359.897 2363.66C252.546 2323.97 219.215 2301.14 166.848 2257.15L408.714 2110.7L504.129 2139.54L496.488 2015.28C454.652 1998.36 420.508 1992.47 359.897 1993.09L211.227 2001.97L144.658 2053L64.7754 2059.66ZM324.752 2383.82L324.394 2383.63L333.27 2516.77L437.561 2503.45C399.289 2423.87 372.432 2409.44 324.752 2383.82Z" fill="#2B2D28"/>
<path d="M437.561 2503.45L333.27 2516.77L324.394 2383.63L324.752 2383.82C372.432 2409.44 399.289 2423.87 437.561 2503.45Z" fill="black"/>
<path d="M621.734 2237.18C579.574 2221.64 548.509 2170.61 504.129 2139.54L408.714 2110.7L166.848 2257.15C219.215 2301.14 252.546 2323.97 359.897 2363.66L475.283 2317.06L579.574 2345.91L630.61 2239.15L621.734 2237.18Z" fill="#456746"/>
<path d="M528.538 1502.7L513.005 1542.64L277.796 1655.81L262.263 1655.2C226 1700.83 219.697 1734.04 204.57 1791.17C272.585 1858.99 306.003 1904.14 359.897 1993.09C420.508 1992.47 454.652 1998.36 496.488 2015.28C504.582 2018.55 512.964 2022.24 521.881 2026.38L521.845 2026.17C511.594 1968.9 505.836 1936.72 486.378 1897.68C451.48 1860.41 431.336 1831.43 393.181 1746.79H419.809L486.378 1897.68L621.734 1815.57C615.298 1746.45 571.645 1663.9 570.698 1640.28C569.751 1616.65 552.918 1583.19 528.538 1502.7Z" fill="#7A3A2E"/>
<path d="M419.809 1746.79H393.181C431.336 1831.43 451.48 1860.41 486.378 1897.68L419.809 1746.79Z" fill="black"/>
<path d="M2425.75 2405.82C2417.41 2401.35 2410.74 2400.7 2392.46 2405.82C2366.31 2447.25 2344.55 2468.4 2306.95 2504.93L2303.91 2507.89C2352.08 2521.43 2379.04 2528.03 2425.75 2518.98C2435.45 2477.61 2440.73 2454.37 2425.75 2405.82Z" fill="black"/>
<path d="M2334.77 1027.84H2314.8C2304.9 1062.77 2301.9 1114.43 2294.83 1185.39C2277.38 1299.2 2269.9 1365.6 2259.33 1487.17C2365.42 1577 2429.66 1617.64 2556.67 1664.68L2567.76 1649.15H2756.37C2760.99 1644.32 2763.5 1643.8 2771.91 1542.64L2756.37 1524.89C2750.42 1481.7 2758.16 1446.68 2745.28 1438.35C2654.55 1343.43 2604.37 1288.82 2523.38 1174.29C2475.11 1133.29 2438.68 1112.62 2334.77 1027.84Z" fill="#AFBE7B"/>
<path d="M2290.39 2021.94C2294.17 2015.96 2298.06 2014.51 2310.36 2015.28C2353.19 2011.63 2389.2 2008.78 2421.31 2006.53C2460.12 1893.67 2488.13 1835.01 2607.7 1782.29L2567.76 1689.09L2556.67 1664.68C2429.66 1617.64 2365.42 1577 2259.33 1487.17C2243.43 1604.48 2230.21 1668.9 2201.63 1782.29C2263.18 1833.89 2281.13 1832.15 2321.46 1866.61L2370.27 1744.57C2381.8 1746.1 2386.35 1750.03 2392.46 1760.1C2354.15 1812.69 2335.72 1850.96 2303.91 1922.08C2294.96 1955.34 2291.21 1983.43 2290.39 2021.94Z" fill="#7A3A2E"/>
<path d="M2392.46 1760.1C2386.35 1750.03 2381.8 1746.1 2370.27 1744.57L2321.46 1866.61C2314.13 1887.67 2308.37 1905.52 2303.91 1922.08C2335.72 1850.96 2354.15 1812.69 2392.46 1760.1Z" fill="black"/>
<path d="M2756.37 1680.22C2748.5 1666.46 2748.89 1659.75 2756.37 1649.15H2567.76L2556.67 1664.68L2567.76 1689.09L2607.7 1782.29C2488.13 1835.01 2460.12 1893.67 2421.31 2006.53C2499.87 2001.01 2555.1 1999.05 2629.89 1997.53C2670.13 2040.05 2703.3 2052.18 2765.25 2070.75C2782.26 2007.44 2799.21 1961.2 2851.79 1846.64C2824.74 1790.59 2805.61 1755.68 2756.37 1680.22Z" fill="#456746"/>
<path fill-rule="evenodd" clip-rule="evenodd" d="M2652.08 2470.17C2665.74 2446.57 2688.08 2379.05 2765.25 2070.75C2703.3 2052.18 2670.13 2040.05 2629.89 1997.53C2555.1 1999.05 2499.87 2001.01 2421.31 2006.53C2389.2 2008.78 2353.19 2011.63 2310.36 2015.28L2303.71 2132.89C2313.91 2120.86 2340.34 2116.55 2421.31 2112.91C2442.86 2135.05 2464.25 2154.25 2596.61 2257.15C2597.99 2268.62 2582.16 2282.3 2392.46 2376.97C2347.87 2348.92 2325.04 2329.56 2290.39 2285.99C2234.19 2325.42 2222.17 2331.42 2201.63 2341.47C2191.81 2309.85 2183.11 2291.37 2161.69 2257.15L2157.9 2259.37L2017.46 2341.47L2150.6 2392.5V2410.25L2157.25 2413.44L2201.63 2434.66L2208.29 2581.11H2547.79C2594.96 2548.14 2615.81 2530.44 2652.08 2499.01V2470.17ZM2392.46 2405.82C2410.74 2400.7 2417.41 2401.35 2425.75 2405.82C2440.73 2454.37 2435.45 2477.61 2425.75 2518.98C2379.04 2528.03 2352.08 2521.43 2303.91 2507.89L2306.95 2504.93C2344.55 2468.4 2366.31 2447.25 2392.46 2405.82Z" fill="#343F31"/>
<path d="M2303.71 2132.89C2233.62 2184.93 2235.86 2205.76 2161.69 2257.15C2183.11 2291.37 2191.81 2309.85 2201.63 2341.47C2222.17 2331.42 2234.19 2325.42 2290.39 2285.99C2325.04 2329.56 2347.87 2348.92 2392.46 2376.97C2582.16 2282.3 2597.99 2268.62 2596.61 2257.15C2464.25 2154.25 2442.86 2135.05 2421.31 2112.91C2340.34 2116.55 2313.91 2120.86 2303.71 2132.89Z" fill="#456746"/>
<path d="M2230.48 2723.13H2165.31C2165.3 2774.34 2164.13 2823.21 2161.43 2871.8L2201.63 3029.34L2183.88 3155.83L2290.39 3237.93L2507.85 3213.52L2652.08 3124.76L2672.05 3018.25C2620.43 3002.93 2599 2998.36 2572.2 2996.06C2571.59 3028.98 2572.53 3049.61 2585.51 3104.79C2580.41 3099.52 2574.89 3096.59 2532.26 3091.48C2521.02 3105.89 2516.03 3116.21 2507.85 3135.85C2499.45 3125.46 2495.6 3116.2 2492.32 3087.04C2460.24 3067.06 2441.78 3060.23 2408 3055.97C2392.94 3092.57 2388.26 3115.47 2379.15 3155.83L2352.52 3146.95C2352.52 3064.85 2307.78 3060.88 2259.33 3135.85L2290.39 3029.34L2259.33 3011.59L2270.42 2809.67L2201.63 2796.35L2230.48 2723.13Z" fill="#2D2727"/>
<path d="M2787.44 3018.25H2743.06L2756.37 3104.79C2773.66 3067.16 2779.59 3048.88 2787.44 3018.25Z" fill="#59965C"/>
<path d="M2652.97 3244.58C2654.14 3232.17 2650.7 3223.82 2638.77 3206.86C2616.14 3231 2608.77 3235.45 2598.83 3237.93C2597.47 3268.46 2599.9 3279.92 2606.97 3295.62C2623.15 3278.59 2638.2 3262.35 2652.97 3244.58Z" fill="#59965C"/>
<path d="M1229.73 2654.34L661.676 2416.91V2851.83C694.803 2972.88 710.225 3044.46 721.588 3191.33H823.66H1120.02L1136.53 3087.04L1396.15 2900.65C1419.16 2900.75 1451.67 2900.74 1538.16 2900.65L1735.65 3082.6L1731.21 3182.45H1804.44H2086.25H2122.82C2144.11 3068.48 2155.94 2970.73 2161.43 2871.8C2164.13 2823.21 2165.3 2774.34 2165.31 2723.13C2165.32 2636.9 2162.05 2544.02 2157.25 2434.66L1589.2 2654.34L1402.81 2490.14L1229.73 2654.34Z" fill="black"/>
<path d="M2709.78 2933.93C2699.98 2961.69 2690.48 2981.48 2672.05 3018.25L2652.08 3124.76L2507.85 3213.52L2290.39 3237.93L2183.88 3155.83L2201.63 3029.34L2161.43 2871.8C2155.94 2970.73 2144.11 3068.48 2122.82 3182.45H2086.25C2107.26 3252.15 2130.06 3323.83 2208.29 3355.53L2554.45 3351.09C2573.64 3330.29 2590.87 3312.56 2606.97 3295.62C2599.9 3279.92 2597.47 3268.46 2598.83 3237.93C2608.77 3235.45 2616.14 3231 2638.77 3206.86C2650.7 3223.82 2654.14 3232.17 2652.97 3244.58C2681.92 3209.73 2709.8 3168.99 2743.06 3104.79H2756.37L2743.06 3018.25H2787.44L2787.6 3017.81C2805.11 2968.55 2814.98 2940.77 2825.16 2871.8C2806.21 2880.04 2789.47 2897.1 2756.37 2933.93H2709.78Z" fill="#343F31"/>
<path d="M823.66 3191.33V3213.52L703.836 3288.96L579.574 3353.31H1094.37L1120.02 3191.33H823.66Z" fill="#456746"/>
<path d="M1804.44 3209.08L1657.99 3288.96L1558.14 3351.09H1788.91H2086.25V3182.45H1804.44V3209.08Z" fill="#456746"/>
<path d="M1808.88 260.083L1655.77 240.112C1655.77 240.112 1646.89 204.609 1640.24 166.887C1633.58 129.164 1635.8 60.3765 1622.49 35.968C1609.17 11.5595 1584.76 2.68359 1584.76 2.68359H1407.25L1382.84 69.2524H1289.64L1265.23 2.68359H1027.8C1006.87 8.70537 1000.68 20.6375 990.082 42.6249C977.506 120.404 969.568 160.546 952.359 222.361H819.222C808.152 138.149 791.215 90.097 754.872 2.68359H706.055L646.143 64.8145H437.561L382.087 2.68359H337.707C319.308 69.8848 309.128 103.123 291.109 160.23C268.951 228.857 273.014 267.15 273.358 335.528M1808.88 260.083C1847.16 282.568 1866.45 295.535 1893.2 319.995C1882.83 353.348 1877.98 371.815 1866.57 404.315C1901.84 430.103 1918.3 443.692 1942.02 466.446L1899.86 513.044C1955.53 556.742 1975.65 574.812 2006.37 604.022C1986.4 646.664 1970.97 666.888 1942.02 701.656C1996.02 729.891 2020.06 744.376 2052.96 768.225C2036.46 805.825 2033.28 824.856 2032.99 856.983M1808.88 260.083C1846.82 508.116 1868.06 651.86 1906.51 814.823M2032.99 856.983L1961.99 833.314M2032.99 856.983C2162.25 913.597 2219.81 947.807 2314.8 1010.09V1027.84M1906.51 814.823C1905.77 815.257 1905.03 815.69 1904.29 816.121M1906.51 814.823L1961.99 833.314M1906.51 814.823L1904.29 816.121M377.649 84.785C346.209 160.17 336.832 201.932 333.27 275.616C354.619 285.696 363.955 285.075 377.649 275.616C416.36 233.083 420.888 227.76 437.561 209.047C428.263 196.4 426.441 177.076 422.028 146.916M377.649 84.785C394.98 109.049 404.697 122.652 422.028 146.916M377.649 84.785L422.028 146.916M273.358 335.528H344.364M273.358 335.528V375.469H291.109M344.364 335.528C375.764 324.789 387.258 313.397 393.181 280.054C412.21 299.349 420.874 313.387 428.743 335.528M344.364 335.528C355.155 348.031 356.935 356.351 433.123 348.841C431.649 344.064 430.21 339.655 428.743 335.528M428.743 335.528H596.613M686.084 335.528C655.229 318.876 647.148 306.492 646.143 280.054C622.603 298.99 611.064 310.747 596.613 335.528M686.084 335.528H803.689C811.373 351.179 828.717 353.86 879.134 348.841M686.084 335.528C681.46 345.602 667.142 348.551 590.669 342.184L596.613 335.528M879.134 348.841L941.265 257.864L981.206 348.841M879.134 348.841C889.836 358.749 916.011 357.455 981.206 348.841M981.206 348.841L1047.77 280.054L1087.72 348.841M981.206 348.841C1004.48 362.977 1039.53 353.919 1087.72 348.841M1087.72 348.841L1116.56 311.119L1149.85 348.841M1087.72 348.841C1089.65 354.751 1098.66 355.96 1149.85 348.841M1149.85 348.841L1183.13 288.929L1218.63 348.841M1149.85 348.841C1165.67 355.004 1183.85 353.263 1218.63 348.841M1218.63 348.841V382.126L1165.38 375.469H291.8M291.109 375.469C291.35 375.399 291.58 375.399 291.8 375.469M291.109 375.469H291.8M899.104 617.335H333.27C317.988 598.579 308.731 590.406 291.109 579.613C295.135 463.518 299.428 377.887 291.8 375.469M899.104 617.335L990.082 799.29M899.104 617.335H1345.12C1451.59 686.66 1498.24 715.092 1509.32 708.313C1543.17 710.671 1561.28 710.725 1593.64 708.313L1611.39 699.437C1660.6 647.957 1677.97 626.503 1702.37 592.927L1684.62 677.247C1681.6 679.606 1678.64 681.949 1675.74 684.281M990.082 799.29C1013.68 814.594 1037.57 821.116 1069.96 825.918C1054.43 874.735 1141.09 999.039 1125.44 987.902M990.082 799.29C957.48 806.809 941.474 812.062 914.637 821.48M1125.44 987.902C1109.79 976.765 1162.01 1019.78 914.637 821.48M1125.44 987.902C1197.38 1043.71 1233.36 1065.56 1291.86 1092.19M914.637 821.48H903.542C903.423 826.132 903.671 831.292 904.252 837.012M1291.86 1092.19C1273.49 1115.4 1262.57 1130.93 1203.1 1169.86V1180.95M1291.86 1092.19C1344.35 1082.95 1386.1 1082.37 1478.25 1087.75M1579.37 1023.41C1553.77 971.986 1541.22 925.216 1522.63 848.107C1582.3 774.376 1617.04 731.527 1675.74 684.281M1579.37 1023.41L1478.25 1087.75M1579.37 1023.41L1624.7 994.559M1675.74 684.281L1624.7 994.559M1624.7 994.559L1478.25 1087.75M1624.7 994.559C1735.02 916.411 1796.41 879.222 1904.29 816.121M1478.25 1087.75C1503.29 1121.04 1537.61 1142.57 1564.79 1170.73M954.578 1063.35C1001.83 1098.4 1044.65 1156.07 1127.66 1276.37C1144.89 1258.35 1153.29 1245.62 1187.57 1180.95H1203.1M954.578 1063.35C1164.8 1489.29 1276.44 1622.07 1402.81 1791.17M954.578 1063.35C929.291 946.634 908.378 877.661 904.252 837.012M1203.1 1180.95L1351.77 1374L1302.95 1478.29L1387.28 1624.74H1418.34L1491.57 1478.29L1433.87 1356.25L1542.6 1170.73H1564.79M1402.81 1791.17C1448.75 1728.36 1472.24 1696.84 1558.14 1569.27C1621.19 1471.57 1661.43 1404.78 1732.79 1286.3M1402.81 1791.17V1930.96M1961.99 833.314V856.983L1890.98 1010.09M1890.98 1010.09C1849.11 1047.53 1820.48 1079.02 1757.84 1158.76C1733.6 1198.39 1717.22 1221.69 1684.62 1265.27C1668.65 1273.56 1659.16 1276.5 1642.46 1278.59M1890.98 1010.09C1829.34 1124.48 1794.77 1187.56 1733.43 1285.24M1642.46 1278.59L1640.32 1275.34M1642.46 1278.59C1641.73 1277.49 1641.02 1276.41 1640.32 1275.34M1733.43 1285.24L1732.79 1286.3M1733.43 1285.24C1733.22 1285.6 1733.01 1285.95 1732.79 1286.3M1564.79 1170.73C1568.65 1174.72 1572.36 1178.85 1575.89 1183.17C1610.21 1229.69 1621.41 1246.66 1640.31 1275.34L1640.32 1275.34M904.252 837.012C759.331 909.543 681.114 951.241 548.509 1027.84M548.509 1027.84L528.538 1502.7M548.509 1027.84C460.32 1072.88 413.487 1104.93 333.27 1169.86L64.7754 1469.42C72.7099 1522.74 62.9867 1533.49 38.1479 1542.64C45.0298 1568.07 48.2069 1589.58 51.4616 1646.93M528.538 1502.7L513.005 1542.64L277.796 1655.81L262.263 1655.2M528.538 1502.7C552.918 1583.19 569.751 1616.65 570.698 1640.28C571.645 1663.9 615.298 1746.45 621.734 1815.57M51.4616 1646.93L262.263 1655.2M51.4616 1646.93C52.4868 1682.94 53.2342 1702.71 64.7754 1717.94C43.5255 1741.6 33.0456 1778.95 13.7393 1835.54C14.852 1916.03 11.4394 1953.47 2.64453 2015.28C11.5862 2052.5 18.6289 2069.52 27.0531 2092.94M262.263 1655.2C226 1700.83 219.697 1734.04 204.57 1791.17C272.585 1858.99 306.003 1904.14 359.897 1993.09M359.897 1993.09L211.227 2001.97L144.658 2053L64.7754 2059.66L27.0531 2092.94M359.897 1993.09C420.508 1992.47 454.652 1998.36 496.488 2015.28M621.734 1815.57L486.378 1897.68M621.734 1815.57C646.002 2024.17 649.611 2101.9 657.238 2245.07M486.378 1897.68L419.809 1746.79H393.181C431.336 1831.43 451.48 1860.41 486.378 1897.68ZM486.378 1897.68C505.836 1936.72 511.594 1968.9 521.845 2026.17M521.881 2026.37C512.964 2022.24 504.582 2018.55 496.488 2015.28M521.881 2026.37L521.845 2026.17M521.881 2026.37C521.869 2026.31 521.857 2026.24 521.845 2026.17M27.0531 2092.94L28.5524 2099.22M27.0531 2092.94C27.5581 2095.06 28.0578 2097.15 28.5524 2099.22M496.488 2015.28L504.129 2139.54M504.129 2139.54C548.509 2170.61 579.574 2221.64 621.734 2237.18L630.61 2239.15M504.129 2139.54L408.714 2110.7L166.848 2257.15C219.215 2301.14 252.546 2323.97 359.897 2363.66L475.283 2317.06L579.574 2345.91L630.61 2239.15M661.676 2416.91V2383.63L797.032 2321.5L661.676 2246.05L657.238 2245.07M661.676 2416.91C640.247 2424.07 630.063 2425.99 615.077 2425.79C610.017 2484.7 603.095 2518.53 590.669 2578.9H237.854C209.966 2563.37 178.7 2534.42 126.906 2487.92C106.936 2392.5 79.3617 2326.88 82.5271 2288.21C60.6382 2233.49 48.8099 2183.99 28.5524 2099.22M661.676 2416.91L1229.73 2654.34L1402.81 2490.14M661.676 2416.91V2851.83C694.803 2972.88 710.225 3044.46 721.588 3191.33H823.66M630.61 2239.15L657.238 2245.07M324.394 2383.63L333.27 2516.77L437.561 2503.45C399.289 2423.87 372.432 2409.44 324.752 2383.82M324.394 2383.63L324.752 2383.82M324.394 2383.63C324.513 2383.69 324.633 2383.76 324.752 2383.82M2314.8 1027.84H2334.77C2438.68 1112.62 2475.11 1133.29 2523.38 1174.29C2604.37 1288.82 2654.55 1343.43 2745.28 1438.35C2758.16 1446.68 2750.42 1481.7 2756.37 1524.89L2771.91 1542.64C2763.5 1643.8 2760.99 1644.32 2756.37 1649.15M2314.8 1027.84C2304.9 1062.77 2301.9 1114.43 2294.83 1185.39C2277.38 1299.2 2269.9 1365.6 2259.33 1487.17M2756.37 1649.15C2748.89 1659.75 2748.5 1666.46 2756.37 1680.22C2805.61 1755.68 2824.74 1790.59 2851.79 1846.64C2799.21 1961.2 2782.26 2007.44 2765.25 2070.75M2756.37 1649.15H2567.76L2556.67 1664.68M2765.25 2070.75C2688.08 2379.05 2665.74 2446.57 2652.08 2470.17V2499.01C2615.81 2530.44 2594.96 2548.14 2547.79 2581.11H2208.29L2201.63 2434.66L2157.25 2413.44M2765.25 2070.75C2703.3 2052.18 2670.13 2040.05 2629.89 1997.53C2555.1 1999.05 2499.87 2001.01 2421.31 2006.53M2161.69 2257.15C2235.86 2205.76 2233.62 2184.93 2303.71 2132.89M2161.69 2257.15C2183.11 2291.37 2191.81 2309.85 2201.63 2341.47C2222.17 2331.42 2234.19 2325.42 2290.39 2285.99C2325.04 2329.56 2347.87 2348.92 2392.46 2376.97C2582.16 2282.3 2597.99 2268.62 2596.61 2257.15C2464.25 2154.25 2442.86 2135.05 2421.31 2112.91C2340.34 2116.55 2313.91 2120.86 2303.71 2132.89M2161.69 2257.15L2157.9 2259.37M2303.71 2132.89L2310.36 2015.28M2310.36 2015.28C2298.06 2014.51 2294.17 2015.96 2290.39 2021.94C2291.21 1983.43 2294.96 1955.34 2303.91 1922.08M2310.36 2015.28C2353.19 2011.63 2389.2 2008.78 2421.31 2006.53M2321.46 1866.61C2281.13 1832.15 2263.18 1833.89 2201.63 1782.29M2321.46 1866.61C2314.13 1887.67 2308.37 1905.52 2303.91 1922.08M2321.46 1866.61L2370.27 1744.57C2381.8 1746.1 2386.35 1750.03 2392.46 1760.1C2354.15 1812.69 2335.72 1850.96 2303.91 1922.08M2201.63 1782.29C2230.21 1668.9 2243.43 1604.48 2259.33 1487.17M2201.63 1782.29C2179.11 2004.81 2171.55 2095.51 2158.4 2253.31M2259.33 1487.17C2365.42 1577 2429.66 1617.64 2556.67 1664.68M2556.67 1664.68L2567.76 1689.09L2607.7 1782.29C2488.13 1835.01 2460.12 1893.67 2421.31 2006.53M2303.91 2507.89C2352.08 2521.43 2379.04 2528.03 2425.75 2518.98C2435.45 2477.61 2440.73 2454.37 2425.75 2405.82C2417.41 2401.35 2410.74 2400.7 2392.46 2405.82C2366.31 2447.25 2344.55 2468.4 2306.95 2504.93M2303.91 2507.89L2306.95 2504.93M2303.91 2507.89C2304.94 2506.89 2305.95 2505.91 2306.95 2504.93M1402.81 2490.14L1589.2 2654.34L2157.25 2434.66M1402.81 2490.14V2445.76M2157.25 2434.66V2413.44M2157.25 2434.66C2162.05 2544.02 2165.32 2636.9 2165.31 2723.13M2157.25 2413.44L2150.6 2410.25V2392.5L2017.46 2341.47L2157.9 2259.37M2157.9 2259.37L2158.4 2253.31M2157.9 2259.37C2158.07 2257.34 2158.23 2255.32 2158.4 2253.31M823.66 3191.33V3213.52L703.836 3288.96L579.574 3353.31H1094.37L1120.02 3191.33M823.66 3191.33H1120.02M2086.25 3213.52V3182.45M2165.31 2723.13H2230.48L2201.63 2796.35L2270.42 2809.67L2259.33 3011.59L2290.39 3029.34L2259.33 3135.85C2307.78 3060.88 2352.52 3064.85 2352.52 3146.95L2379.15 3155.83C2388.26 3115.47 2392.94 3092.57 2408 3055.97C2441.78 3060.23 2460.24 3067.06 2492.32 3087.04C2495.6 3116.2 2499.45 3125.46 2507.85 3135.85C2516.03 3116.21 2521.02 3105.89 2532.26 3091.48C2574.89 3096.59 2580.41 3099.52 2585.51 3104.79C2572.53 3049.61 2571.59 3028.98 2572.2 2996.06C2599 2998.36 2620.43 3002.93 2672.05 3018.25M2165.31 2723.13C2165.3 2774.34 2164.13 2823.21 2161.43 2871.8M2672.05 3018.25C2690.48 2981.48 2699.98 2961.69 2709.78 2933.93H2756.37C2789.47 2897.1 2806.21 2880.04 2825.16 2871.8C2814.98 2940.77 2805.11 2968.55 2787.6 3017.81M2672.05 3018.25L2652.08 3124.76L2507.85 3213.52L2290.39 3237.93L2183.88 3155.83L2201.63 3029.34L2161.43 2871.8M2787.44 3018.25H2743.06L2756.37 3104.79M2787.44 3018.25C2779.59 3048.88 2773.66 3067.16 2756.37 3104.79M2787.44 3018.25L2787.6 3017.81M2787.44 3018.25C2787.49 3018.1 2787.54 3017.96 2787.6 3017.81M2756.37 3104.79H2743.06C2709.8 3168.99 2681.92 3209.73 2652.97 3244.58M2652.97 3244.58C2654.14 3232.17 2650.7 3223.82 2638.77 3206.86C2616.14 3231 2608.77 3235.45 2598.83 3237.93C2597.47 3268.46 2599.9 3279.92 2606.97 3295.62M2652.97 3244.58C2638.2 3262.35 2623.15 3278.59 2606.97 3295.62M2606.97 3295.62C2590.87 3312.56 2573.64 3330.29 2554.45 3351.09L2208.29 3355.53C2130.06 3323.83 2107.26 3252.15 2086.25 3182.45M2086.25 3182.45V3351.09H1788.91H1558.14L1657.99 3288.96L1804.44 3209.08V3182.45M2086.25 3182.45H2122.82C2144.11 3068.48 2155.94 2970.73 2161.43 2871.8M2086.25 3182.45H1804.44M1120.02 3191.33L1136.53 3087.04L1396.15 2900.65C1419.16 2900.75 1451.67 2900.74 1538.16 2900.65L1735.65 3082.6L1731.21 3182.45H1804.44M730.463 98.0988C761.903 173.484 771.28 215.246 774.843 288.929C753.493 299.01 744.157 298.389 730.463 288.929C691.752 246.396 687.224 241.074 670.551 222.361C679.849 209.714 681.672 190.39 686.084 160.23L730.463 98.0988ZM1402.81 1999.75C1311.42 1999.76 1314.05 2135.1 1402.81 2135.1C1491.57 2135.1 1494.2 1999.74 1402.81 1999.75ZM1402.81 2279.34C1316.27 2279.34 1311.83 2410.25 1402.81 2410.25C1493.79 2410.25 1489.35 2279.34 1402.81 2279.34ZM1067.75 38.1869C1043.34 40.4059 1034.46 151.354 1067.75 151.354C1101.98 154.445 1179.57 151.885 1209.76 149.135C1239.94 146.384 1244.67 40.4403 1209.76 35.968C1174.84 31.4957 1092.15 35.968 1067.75 38.1869ZM1123.22 47.0628C1100.4 89.4916 1123.22 135.821 1123.22 135.821C1123.22 135.821 1142.41 98.3324 1123.22 47.0628ZM1442.75 38.1869C1418.34 40.4059 1409.47 151.354 1442.75 151.354C1476.98 154.445 1545.7 154.104 1575.89 151.354C1606.07 148.603 1610.8 42.6592 1575.89 38.1869C1540.97 33.7146 1467.16 35.968 1442.75 38.1869ZM1489.35 47.0628C1466.52 89.4916 1489.35 135.821 1489.35 135.821C1489.35 135.821 1508.54 98.3324 1489.35 47.0628Z" stroke="black" stroke-width="4.43792"/>
</svg>
